<svg xmlns="http://www.w3.org/2000/svg" width="3799.19" height="1155" viewBox="0 0 3799.19 1155">
  <metadata><?xpacket begin="﻿" id="W5M0MpCehiHzreSzNTczkc9d"?>
<x:xmpmeta xmlns:x="adobe:ns:meta/" x:xmptk="Adobe XMP Core 5.6-c142 79.160924, 2017/07/13-01:06:39        ">
   <rdf:RDF xmlns:rdf="http://www.w3.org/1999/02/22-rdf-syntax-ns#">
      <rdf:Description rdf:about=""/>
   </rdf:RDF>
</x:xmpmeta>
                                                                                                    
                                                                                                    
                                                                                                    
                                                                                                    
                                                                                                    
                                                                                                    
                                                                                                    
                                                                                                    
                                                                                                    
                                                                                                    
                                                                                                    
                                                                                                    
                                                                                                    
                                                                                                    
                                                                                                    
                                                                                                    
                                                                                                    
                                                                                                    
                                                                                                    
                                                                                                    
                           
<?xpacket end="w"?></metadata>
<defs>
    <style>
      .cls-1 {
        fill: #172540;
      }

      .cls-1, .cls-10, .cls-11, .cls-12, .cls-13, .cls-14, .cls-15, .cls-16, .cls-17, .cls-18, .cls-19, .cls-2, .cls-20, .cls-21, .cls-3, .cls-4, .cls-5, .cls-6, .cls-7, .cls-8, .cls-9 {
        fill-rule: evenodd;
      }

      .cls-2 {
        fill: #25427a;
      }

      .cls-3 {
        fill: #5085cb;
      }

      .cls-4 {
        fill: #294376;
      }

      .cls-5 {
        fill: #21304f;
      }

      .cls-6 {
        fill: #3c62a0;
      }

      .cls-7 {
        fill: #4373bd;
      }

      .cls-8 {
        fill: #253b6c;
      }

      .cls-9 {
        fill: #253556;
      }

      .cls-10 {
        fill: #3761a9;
      }

      .cls-11 {
        fill: #21355a;
      }

      .cls-12 {
        fill: #507dbe;
      }

      .cls-13 {
        fill: #365ea4;
      }

      .cls-14 {
        fill: #1f2f51;
      }

      .cls-15 {
        fill: #4473bb;
      }

      .cls-16 {
        fill: #3c68af;
      }

      .cls-17 {
        fill: #223254;
      }

      .cls-18 {
        fill: #2d5090;
      }

      .cls-19 {
        fill: #4c7ec3;
      }

      .cls-20 {
        fill: #375684;
      }

      .cls-21 {
        fill: #395988;
      }
    </style>
  </defs>
  <g>
    <path class="cls-1" d="M507.376,73.006l15.763,68.156L747.334,163.88Z" transform="translate(-101 -73)"/>
    <path class="cls-2" d="M558.17,296.7L524.891,139.414l485.169,50.68-42.033,55.922Z" transform="translate(-101 -73)"/>
    <path class="cls-3" d="M586.2,420.774L558.17,294.949l411.608-52.428L868.19,366.6Z" transform="translate(-101 -73)"/>
    <path class="cls-4" d="M787.62,467.959l82.321-103.107-285.5,55.922Z" transform="translate(-101 -73)"/>
  </g>
  <g>
    <path class="cls-5" d="M1010.06,188.82l-43.4,54.931L1088.43,428.59Z" transform="translate(-101 -73)"/>
    <path class="cls-6" d="M865.933,367.009l102.1-124.352L1236.62,651.435l-71.83.67Z" transform="translate(-101 -73)"/>
    <path class="cls-7" d="M786.5,466.488l80.8-100.573L1166.21,650.9l-160.84,1.088Z" transform="translate(-101 -73)"/>
    <path class="cls-8" d="M873.522,650.021l133.218,0.868L786.5,466.488Z" transform="translate(-101 -73)"/>
  </g>
  <g>
    <path class="cls-9" d="M1237.76,650.485l-73.61-.111-70.38,211.484Z" transform="translate(-101 -73)"/>
    <path class="cls-3" d="M1004.79,649.251l161.07,0.519-157.54,467.08-47.758-57.31Z" transform="translate(-101 -73)"/>
    <path class="cls-10" d="M873.812,648.4l132.678,1.252L964.934,1065.48,866.426,936.471Z" transform="translate(-101 -73)"/>
    <path class="cls-11" d="M786.487,837.057l83.4,105.052L875.563,644.9Z" transform="translate(-101 -73)"/>
  </g>
  <g>
    <path class="cls-1" d="M1007.06,1115.75l-43.675-54.83-208.266,75.72Z" transform="translate(-101 -73)"/>
    <path class="cls-12" d="M866.154,934.626L964.139,1062.5,504.067,1228l14.441-69.91Z" transform="translate(-101 -73)"/>
    <path class="cls-13" d="M787.257,834.511l79.653,101.7L516.856,1161l37.512-156.55Z" transform="translate(-101 -73)"/>
    <path class="cls-14" d="M582.965,880.273L553.371,1009.53,789.008,834.511Z" transform="translate(-101 -73)"/>
  </g>
  <g>
    <path class="cls-1" d="M504.849,1227.59l15.058-68.37L324.461,1040.63Z" transform="translate(-101 -73)"/>
    <path class="cls-15" d="M556.7,1004.37L519.156,1160.8,101.5,907.139l64.135-32.663Z" transform="translate(-101 -73)"/>
    <path class="cls-16" d="M584.724,880.2L555.952,1005.95,159.22,877.885l147.688-69.313Z" transform="translate(-101 -73)"/>
    <path class="cls-17" d="M424.6,752.889L304.4,810.152l280.319,71.8Z" transform="translate(-101 -73)"/>
  </g>
  <g>
    <path class="cls-1" d="M101.517,907.252l63.174-30.631L136.02,657.292Z" transform="translate(-101 -73)"/>
    <path class="cls-18" d="M309.459,809.342L162.981,877.014l-61.972-482.42,66.578,31.341Z" transform="translate(-101 -73)"/>
    <path class="cls-19" d="M424.619,754.234l-116.87,55.5L163.387,423.313l147.12,68.844Z" transform="translate(-101 -73)"/>
    <path class="cls-20" d="M426.805,546.6L309.453,492.425,424.619,755.982Z" transform="translate(-101 -73)"/>
  </g>
  <g>
    <path class="cls-1" d="M101.022,396.308l64.806,29.709L330.472,254.754Z" transform="translate(-101 -73)"/>
    <path class="cls-2" d="M311.205,494.172l-148.88-69.9,346.8-351.263,15.764,68.156Z" transform="translate(-101 -73)"/>
    <path class="cls-3" d="M426.805,548.347L309.453,494.172,524.891,137.666,559.922,296.7Z" transform="translate(-101 -73)"/>
    <path class="cls-21" d="M587.946,420.774L559.922,293.2,425.054,550.1Z" transform="translate(-101 -73)"/>
  </g>
  <path id="zidia" class="cls-12" d="M2651.74,1171.51v-86.7H2496.61q-9.975,0-51.7,2.46l50.99-54.41,144.78-164.268v-69.85h-313.1v81.784l133.73-.7q28.53-.345,46-1.4-16.77,16.5-51.71,55.81l-141.92,160.41v76.87h338.06ZM2819.34,748.2V656.937H2719.13V748.2h100.21Zm0,423.312V798.742H2719.13V1171.51h100.21Zm450.03-514.573H3169.16v185.33q-46.35-51.944-109.83-51.949-69.18,0-114.47,49.316t-45.29,144.087q0,92.669,46.54,144.439t111.79,51.77q32.1,0,63.66-15.62t54.73-47.56v54.76h93.08V656.937ZM3025.99,893.689q24.06-27.906,59.73-27.9,36.72,0,60.26,28.256t23.54,92.489q0,57.572-24.25,86.521-24.255,28.965-58.84,28.96-43.515,0-67.75-38.61-16.77-26.67-16.76-86.348Q3001.92,921.6,3025.99,893.689ZM3468.35,748.2V656.937h-100.2V748.2h100.2Zm0,423.312V798.742h-100.2V1171.51h100.2Zm201.84-295.372q14.97-10.348,41.72-10.354,39.585,0,53.85,12.109t14.26,40.541v9.828q-27.105,11.238-97.35,24.22-52.065,9.831-79.7,22.991T3560,1013.38q-15.345,24.75-15.34,56.34,0,47.73,33.7,78.97t92.18,31.24a159.5,159.5,0,0,0,62.41-12.28q29.235-12.285,54.92-36.86,1.065,2.82,3.56,11.58,5.7,19.32,9.63,29.14h99.13q-13.185-26.67-18-50.02t-4.82-72.48l1.07-115.131q0-64.234-13.37-88.278t-46.18-39.663q-32.82-15.615-99.85-15.62-73.815,0-111.26,25.974t-52.77,80.029l90.93,16.146Q3655.21,886.5,3670.19,876.138Zm109.83,136.012q0,35.46-3.92,48.09-5.715,19.3-23.89,32.64-24.615,17.565-51.71,17.55-24.255,0-39.94-15.09-15.7-15.09-15.69-35.8,0-21.06,19.61-34.75,12.84-8.43,54.56-17.2t60.98-15.094v19.654Z" transform="translate(-101 -73)"/>
  <path id="Me_" data-name="Me " class="cls-11" d="M1438.56,1174.52v-410.3l103.34,410.3h101.56l103.69-410.3v410.3h98V653.293H1686.93l-93.72,355.547-94.79-355.547H1340.56V1174.52h98Zm705.57-78.93q-16.035,12.795-39.56,12.8-34.56,0-57.73-24.71t-24.23-69.15h250.87q2.145-114.843-46.68-170.487T2093.52,788.4q-75.18,0-124.36,53.154t-49.18,147.018q0,78.582,37.42,130.128,47.385,64.365,146.1,64.36,62.355,0,103.88-28.63,41.505-28.605,60.76-83.37l-99.78-16.71Q2160.155,1082.79,2144.13,1095.59ZM2024.39,953.373q-0.36-40.882,21.03-64.709t54.16-23.822q30.645,0,52.03,22.577t22.45,65.954H2024.39Z" transform="translate(-101 -73)"/>
</svg>
