<svg xmlns="http://www.w3.org/2000/svg" id="Logo" width="1136.75" height="1155" viewBox="0 0 1136.75 1155"><metadata><?xpacket begin="﻿" id="W5M0MpCehiHzreSzNTczkc9d"?><x:xmpmeta xmlns:x="adobe:ns:meta/" x:xmptk="Adobe XMP Core 5.6-c142 79.160924, 2017/07/13-01:06:39"><rdf:RDF xmlns:rdf="http://www.w3.org/1999/02/22-rdf-syntax-ns#"><rdf:Description/></rdf:RDF></x:xmpmeta><?xpacket end="w"?></metadata><defs><style>.cls-1{fill:#172540}.cls-1,.cls-10,.cls-11,.cls-12,.cls-13,.cls-14,.cls-15,.cls-16,.cls-17,.cls-18,.cls-19,.cls-2,.cls-20,.cls-21,.cls-3,.cls-4,.cls-5,.cls-6,.cls-7,.cls-8,.cls-9{fill-rule:evenodd}.cls-2{fill:#25427a}.cls-3{fill:#5085cb}.cls-4{fill:#294376}.cls-5{fill:#21304f}.cls-6{fill:#3c62a0}.cls-7{fill:#4373bd}.cls-8{fill:#253b6c}.cls-9{fill:#253556}.cls-10{fill:#3761a9}.cls-11{fill:#21355a}.cls-12{fill:#507dbe}.cls-13{fill:#365ea4}.cls-14{fill:#1f2f51}.cls-15{fill:#4473bb}.cls-16{fill:#3c68af}.cls-17{fill:#223254}.cls-18{fill:#2d5090}.cls-19{fill:#4c7ec3}.cls-20{fill:#375684}.cls-21{fill:#395988}</style></defs><g><path d="M507.376,73.006l15.763,68.156L747.334,163.88Z" class="cls-1" transform="translate(-101 -73)"/><path d="M558.17,296.7L524.891,139.414l485.169,50.68-42.033,55.922Z" class="cls-2" transform="translate(-101 -73)"/><path d="M586.2,420.774L558.17,294.949l411.608-52.428L868.19,366.6Z" class="cls-3" transform="translate(-101 -73)"/><path d="M787.62,467.959l82.321-103.107-285.5,55.922Z" class="cls-4" transform="translate(-101 -73)"/></g><g><path d="M1010.06,188.82l-43.4,54.931L1088.43,428.59Z" class="cls-5" transform="translate(-101 -73)"/><path d="M865.933,367.009l102.1-124.352L1236.62,651.435l-71.83.67Z" class="cls-6" transform="translate(-101 -73)"/><path d="M786.5,466.488l80.8-100.573L1166.21,650.9l-160.84,1.088Z" class="cls-7" transform="translate(-101 -73)"/><path d="M873.522,650.021l133.218,0.868L786.5,466.488Z" class="cls-8" transform="translate(-101 -73)"/></g><g><path d="M1237.76,650.485l-73.61-.111-70.38,211.484Z" class="cls-9" transform="translate(-101 -73)"/><path d="M1004.79,649.251l161.07,0.519-157.54,467.08-47.758-57.31Z" class="cls-3" transform="translate(-101 -73)"/><path d="M873.812,648.4l132.678,1.252L964.934,1065.48,866.426,936.471Z" class="cls-10" transform="translate(-101 -73)"/><path d="M786.487,837.057l83.4,105.052L875.563,644.9Z" class="cls-11" transform="translate(-101 -73)"/></g><g><path d="M1007.06,1115.75l-43.675-54.83-208.266,75.72Z" class="cls-1" transform="translate(-101 -73)"/><path d="M866.154,934.626L964.139,1062.5,504.067,1228l14.441-69.91Z" class="cls-12" transform="translate(-101 -73)"/><path d="M787.257,834.511l79.653,101.7L516.856,1161l37.512-156.55Z" class="cls-13" transform="translate(-101 -73)"/><path d="M582.965,880.273L553.371,1009.53,789.008,834.511Z" class="cls-14" transform="translate(-101 -73)"/></g><g><path d="M504.849,1227.59l15.058-68.37L324.461,1040.63Z" class="cls-1" transform="translate(-101 -73)"/><path d="M556.7,1004.37L519.156,1160.8,101.5,907.139l64.135-32.663Z" class="cls-15" transform="translate(-101 -73)"/><path d="M584.724,880.2L555.952,1005.95,159.22,877.885l147.688-69.313Z" class="cls-16" transform="translate(-101 -73)"/><path d="M424.6,752.889L304.4,810.152l280.319,71.8Z" class="cls-17" transform="translate(-101 -73)"/></g><g><path d="M101.517,907.252l63.174-30.631L136.02,657.292Z" class="cls-1" transform="translate(-101 -73)"/><path d="M309.459,809.342L162.981,877.014l-61.972-482.42,66.578,31.341Z" class="cls-18" transform="translate(-101 -73)"/><path d="M424.619,754.234l-116.87,55.5L163.387,423.313l147.12,68.844Z" class="cls-19" transform="translate(-101 -73)"/><path d="M426.805,546.6L309.453,492.425,424.619,755.982Z" class="cls-20" transform="translate(-101 -73)"/></g><g><path d="M101.022,396.308l64.806,29.709L330.472,254.754Z" class="cls-1" transform="translate(-101 -73)"/><path d="M311.205,494.172l-148.88-69.9,346.8-351.263,15.764,68.156Z" class="cls-2" transform="translate(-101 -73)"/><path d="M426.805,548.347L309.453,494.172,524.891,137.666,559.922,296.7Z" class="cls-3" transform="translate(-101 -73)"/><path d="M587.946,420.774L559.922,293.2,425.054,550.1Z" class="cls-21" transform="translate(-101 -73)"/></g></svg>